<svg width="31" height="31" viewBox="0 0 31 31" fill="none" xmlns="http://www.w3.org/2000/svg">
<circle cx="15.5" cy="15.5" r="15.5" fill="url(#paint0_linear_1262_52395)"/>
<path fill-rule="evenodd" clip-rule="evenodd" d="M15.1161 9.74219C14.84 9.74219 14.6161 9.96604 14.6161 10.2422V14.6153H10.2441C9.968 14.6153 9.74414 14.8391 9.74414 15.1153V15.8867C9.74414 16.1629 9.968 16.3867 10.2441 16.3867H14.6161V20.7565C14.6161 21.0326 14.84 21.2565 15.1161 21.2565H15.8876C16.1637 21.2565 16.3876 21.0326 16.3876 20.7565V16.3867H20.7584C21.0346 16.3867 21.2584 16.1629 21.2584 15.8867V15.1153C21.2584 14.8391 21.0346 14.6153 20.7584 14.6153H16.3876V10.2422C16.3876 9.96605 16.1637 9.74219 15.8876 9.74219H15.1161Z" fill="white"/>
<path d="M14.6161 14.6153V14.8653H14.8661V14.6153H14.6161ZM14.6161 16.3867H14.8661V16.1367H14.6161V16.3867ZM16.3876 16.3867V16.1367H16.1376V16.3867H16.3876ZM16.3876 14.6153H16.1376V14.8653H16.3876V14.6153ZM14.8661 10.2422C14.8661 10.1041 14.9781 9.99219 15.1161 9.99219V9.49219C14.7019 9.49219 14.3661 9.82797 14.3661 10.2422H14.8661ZM14.8661 14.6153V10.2422H14.3661V14.6153H14.8661ZM10.2441 14.8653H14.6161V14.3653H10.2441V14.8653ZM9.99414 15.1153C9.99414 14.9772 10.1061 14.8653 10.2441 14.8653V14.3653C9.82993 14.3653 9.49414 14.7011 9.49414 15.1153H9.99414ZM9.99414 15.8867V15.1153H9.49414V15.8867H9.99414ZM10.2441 16.1367C10.1061 16.1367 9.99414 16.0248 9.99414 15.8867H9.49414C9.49414 16.3009 9.82993 16.6367 10.2441 16.6367V16.1367ZM14.6161 16.1367H10.2441V16.6367H14.6161V16.1367ZM14.8661 20.7565V16.3867H14.3661V20.7565H14.8661ZM15.1161 21.0065C14.9781 21.0065 14.8661 20.8945 14.8661 20.7565H14.3661C14.3661 21.1707 14.7019 21.5065 15.1161 21.5065V21.0065ZM15.8876 21.0065H15.1161V21.5065H15.8876V21.0065ZM16.1376 20.7565C16.1376 20.8945 16.0256 21.0065 15.8876 21.0065V21.5065C16.3018 21.5065 16.6376 21.1707 16.6376 20.7565H16.1376ZM16.1376 16.3867V20.7565H16.6376V16.3867H16.1376ZM20.7584 16.1367H16.3876V16.6367H20.7584V16.1367ZM21.0084 15.8867C21.0084 16.0248 20.8965 16.1367 20.7584 16.1367V16.6367C21.1726 16.6367 21.5084 16.3009 21.5084 15.8867H21.0084ZM21.0084 15.1153V15.8867H21.5084V15.1153H21.0084ZM20.7584 14.8653C20.8965 14.8653 21.0084 14.9772 21.0084 15.1153H21.5084C21.5084 14.7011 21.1726 14.3653 20.7584 14.3653V14.8653ZM16.3876 14.8653H20.7584V14.3653H16.3876V14.8653ZM16.1376 10.2422V14.6153H16.6376V10.2422H16.1376ZM15.8876 9.99219C16.0256 9.99219 16.1376 10.1041 16.1376 10.2422H16.6376C16.6376 9.82797 16.3018 9.49219 15.8876 9.49219V9.99219ZM15.1161 9.99219H15.8876V9.49219H15.1161V9.99219Z" fill="white"/>
<defs>
<linearGradient id="paint0_linear_1262_52395" x1="0" y1="15.5" x2="31" y2="15.5" gradientUnits="userSpaceOnUse">
<stop stop-color="#0085FF"/>
<stop offset="1" stop-color="#004EFF"/>
</linearGradient>
</defs>
</svg>
