<svg width="32" height="32" viewBox="0 0 32 32" fill="none" xmlns="http://www.w3.org/2000/svg">
<path fill-rule="evenodd" clip-rule="evenodd" d="M5.25344 0H26.5198C28.3132 0 29.7733 1.472 29.7733 3.296V32L26.3611 28.96L24.4408 27.168L22.4094 25.264L23.2505 28.224H5.25344C3.46008 28.224 2 26.752 2 24.928V3.296C2 1.472 3.46008 0 5.25344 0ZM19.3467 19.6012C19.8229 20.2092 20.3942 20.8972 20.3942 20.8972C23.9016 20.7852 25.2505 18.4652 25.2505 18.4652C25.2505 13.3132 22.9652 9.13716 22.9652 9.13716C20.6799 7.40916 18.5056 7.45716 18.5056 7.45716L18.2834 7.71316C20.9814 8.54516 22.2352 9.74516 22.2352 9.74516C20.5846 8.83316 18.9659 8.38516 17.4582 8.20916C16.3155 8.08116 15.2204 8.11316 14.2523 8.24116C14.1692 8.24116 14.0982 8.25336 14.0181 8.2671L14.0181 8.2671L13.9825 8.27316C13.4271 8.32116 12.0781 8.52916 10.3799 9.28116C9.79273 9.55316 9.44358 9.74516 9.44358 9.74516C9.44358 9.74516 10.7608 8.48116 13.6175 7.64916L13.4588 7.45716C13.4588 7.45716 11.2846 7.40916 8.99921 9.13716C8.99921 9.13716 6.71387 13.3132 6.71387 18.4652C6.71387 18.4652 8.04698 20.7852 11.5544 20.8972C11.5544 20.8972 12.1416 20.1772 12.6177 19.5692C10.6021 18.9612 9.84034 17.6812 9.84034 17.6812C9.84034 17.6812 9.99905 17.7932 10.2847 17.9532C10.3006 17.9692 10.3165 17.9852 10.3482 18.0012C10.372 18.0172 10.3958 18.0291 10.4196 18.0411L10.4196 18.0412L10.4197 18.0412C10.4434 18.0532 10.4672 18.0652 10.491 18.0812C10.8878 18.3052 11.2846 18.4812 11.6496 18.6252C12.3003 18.8812 13.0779 19.1372 13.9825 19.3132C15.1728 19.5372 16.5694 19.6172 18.093 19.3292C18.8389 19.2012 19.6007 18.9772 20.3942 18.6412C20.9497 18.4332 21.5686 18.1292 22.2193 17.6972C22.2193 17.6972 21.4258 19.0092 19.3467 19.6012ZM13.0143 13.4258C12.1097 13.4258 11.3955 14.2258 11.3955 15.2018C11.3955 16.1778 12.1255 16.9778 13.0143 16.9778C13.9189 16.9778 14.6331 16.1778 14.6331 15.2018C14.6489 14.2258 13.9189 13.4258 13.0143 13.4258ZM17.1885 15.2018C17.1885 14.2258 17.9026 13.4258 18.8073 13.4258C19.7119 13.4258 20.426 14.2258 20.426 15.2018C20.426 16.1778 19.7119 16.9778 18.8073 16.9778C17.9185 16.9778 17.1885 16.1778 17.1885 15.2018Z" fill="white"/>
</svg>
