<svg width="31" height="31" viewBox="0 0 31 31" fill="none" xmlns="http://www.w3.org/2000/svg">
<circle cx="15.5" cy="15.5" r="15.5" fill="url(#paint0_linear_1262_52388)"/>
<path d="M10.2441 16.3867C9.968 16.3867 9.74414 16.1628 9.74414 15.8867V15.1152C9.74414 14.8391 9.968 14.6152 10.2441 14.6152H20.7584C21.0346 14.6152 21.2584 14.8391 21.2584 15.1152V15.8867C21.2584 16.1628 21.0346 16.3867 20.7584 16.3867H10.2441Z" fill="white"/>
<path d="M9.99414 15.8867V15.1152H9.49414V15.8867H9.99414ZM10.2441 14.8652H20.7584V14.3652H10.2441V14.8652ZM21.0084 15.1152V15.8867H21.5084V15.1152H21.0084ZM20.7584 16.1367H10.2441V16.6367H20.7584V16.1367ZM21.0084 15.8867C21.0084 16.0247 20.8965 16.1367 20.7584 16.1367V16.6367C21.1726 16.6367 21.5084 16.3009 21.5084 15.8867H21.0084ZM20.7584 14.8652C20.8965 14.8652 21.0084 14.9772 21.0084 15.1152H21.5084C21.5084 14.701 21.1726 14.3652 20.7584 14.3652V14.8652ZM9.99414 15.1152C9.99414 14.9772 10.1061 14.8652 10.2441 14.8652V14.3652C9.82993 14.3652 9.49414 14.701 9.49414 15.1152H9.99414ZM9.49414 15.8867C9.49414 16.3009 9.82993 16.6367 10.2441 16.6367V16.1367C10.1061 16.1367 9.99414 16.0247 9.99414 15.8867H9.49414Z" fill="white"/>
<defs>
<linearGradient id="paint0_linear_1262_52388" x1="0" y1="15.5" x2="31" y2="15.5" gradientUnits="userSpaceOnUse">
<stop stop-color="#0085FF"/>
<stop offset="1" stop-color="#004EFF"/>
</linearGradient>
</defs>
</svg>
