<svg width="32" height="32" viewBox="0 0 32 32" fill="none" xmlns="http://www.w3.org/2000/svg">
<path fill-rule="evenodd" clip-rule="evenodd" d="M21.8447 12.0156H29.9688V24.5914C29.9688 25.5727 29.7226 26.4794 29.2302 27.3114C28.7378 28.1434 28.0742 28.7993 27.2393 29.2793C26.4044 29.7593 25.4946 29.9993 24.5099 29.9993H7.491C6.50625 30.0207 5.59645 29.786 4.76155 29.2953C3.92666 28.8047 3.25769 28.1434 2.75461 27.3114C2.25153 26.4794 2 25.5727 2 24.5914V12.0476H10.1241C8.75403 14.1169 8.45433 16.2715 9.225 18.5115C9.76018 20.0262 10.7128 21.2208 12.0829 22.0955C12.982 22.6928 13.9507 23.0608 14.9889 23.1994C16.0272 23.3381 17.0494 23.2581 18.0555 22.9594C19.0617 22.6608 19.9608 22.1595 20.7529 21.4555C21.545 20.7515 22.1444 19.8982 22.5511 18.8955C23.0007 17.8075 23.1826 16.6982 23.097 15.5676C22.99 14.3302 22.5725 13.1463 21.8447 12.0156ZM5.468 8.91189V2.86399C5.468 2.62932 5.48941 2.48533 5.53222 2.43199C5.57504 2.37866 5.72489 2.30933 5.98178 2.224L6.27078 2.16V8.91189H7.42678V2.032H8.16533V8.91189H9.32133V2H24.5099C25.4732 2 26.367 2.23999 27.1912 2.71999C28.0153 3.19998 28.679 3.8453 29.182 4.65596C29.6851 5.46661 29.9474 6.34126 29.9688 7.27991C29.9902 7.81324 30.0009 8.45322 30.0009 9.19988C29.9795 10.7785 29.9688 11.4292 29.9688 11.1519H21.363C21.1703 11.1519 21.0205 11.0879 20.9134 10.9599C19.9715 10.1065 18.9118 9.53055 17.7344 9.23188C16.557 8.93322 15.3796 8.93855 14.2022 9.24788C13.0248 9.55721 11.9651 10.1385 11.0232 10.9919C10.9162 11.0985 10.8091 11.1519 10.7021 11.1519H2.19267L2.03211 11.1199V9.90387C2.0107 10.1599 2 9.66921 2 8.4319C2 7.8559 2.02141 7.36525 2.06422 6.95992C2.17126 5.4026 2.8884 4.11197 4.21567 3.08798L4.34411 3.05598V8.91189H5.468ZM27.4322 8.20825V5.2323C27.4322 4.95497 27.352 4.73631 27.1914 4.57631C27.0309 4.41631 26.8221 4.33631 26.5652 4.33631C25.5805 4.31498 24.5851 4.31498 23.5789 4.33631C23.3006 4.33631 23.0865 4.42164 22.9367 4.59231C22.7868 4.76297 22.7119 4.98697 22.7119 5.2643V8.20825C22.7119 8.48558 22.7922 8.70424 22.9527 8.86424C23.1133 9.02424 23.322 9.10423 23.5789 9.10423H26.5331C26.8114 9.10423 27.0309 9.02424 27.1914 8.86424C27.352 8.70424 27.4322 8.48558 27.4322 8.20825ZM16.0005 21.6164C14.9944 21.6164 14.0632 21.3765 13.2069 20.8965C12.3506 20.4165 11.6762 19.7551 11.1839 18.9125C10.6915 18.0698 10.4453 17.1525 10.4453 16.1605C10.4453 15.1685 10.6915 14.2512 11.1839 13.4086C11.6762 12.5659 12.3506 11.8939 13.2069 11.3926C14.0632 10.8913 14.989 10.6406 15.9845 10.6406C16.9799 10.6406 17.9004 10.8913 18.746 11.3926C19.5916 11.8939 20.2606 12.5659 20.753 13.4086C21.2453 14.2512 21.4915 15.1685 21.4915 16.1605C21.4915 17.1525 21.2453 18.0698 20.753 18.9125C20.2606 19.7551 19.5916 20.4165 18.746 20.8965C17.9004 21.3765 16.9853 21.6164 16.0005 21.6164ZM20.046 16.146C20.046 15.4206 19.864 14.7433 19.5001 14.114C19.1362 13.4847 18.6438 12.9887 18.023 12.626C17.4022 12.2634 16.7225 12.082 15.9839 12.082C15.2454 12.082 14.5657 12.2634 13.9449 12.626C13.3241 12.9887 12.8317 13.4793 12.4678 14.098C12.1038 14.7167 11.9219 15.394 11.9219 16.13C11.9219 16.866 12.1038 17.5433 12.4678 18.1619C12.8317 18.7806 13.3241 19.2766 13.9449 19.6499C14.5657 20.0232 15.2454 20.2099 15.9839 20.2099C16.7225 20.2099 17.4022 20.0286 18.023 19.6659C18.6438 19.3032 19.1362 18.8126 19.5001 18.1939C19.864 17.5753 20.046 16.8926 20.046 16.146Z" fill="white"/>
</svg>
