<svg width="139" height="34" viewBox="0 0 139 34" fill="none" xmlns="http://www.w3.org/2000/svg">
<path fill-rule="evenodd" clip-rule="evenodd" d="M1.80957 22.4168L11.1256 31.5112L31.928 11.2034L22.612 2.10938L1.80957 22.4168Z" fill="#DFDEE3"/>
<mask id="mask0_14_2685" style="mask-type:alpha" maskUnits="userSpaceOnUse" x="0" y="0" width="14" height="14">
<path fill-rule="evenodd" clip-rule="evenodd" d="M0 0.214844H13.2013V13.1023H0V0.214844Z" fill="white"/>
</mask>
<g mask="url(#mask0_14_2685)">
<path fill-rule="evenodd" clip-rule="evenodd" d="M13.2013 6.65859C13.2013 10.2174 10.246 13.1023 6.60053 13.1023C2.95503 13.1023 0 10.2174 0 6.65859C0 3.0998 2.95503 0.214844 6.60053 0.214844C10.246 0.214844 13.2013 3.0998 13.2013 6.65859" fill="#FF8F08"/>
</g>
<mask id="mask1_14_2685" style="mask-type:alpha" maskUnits="userSpaceOnUse" x="20" y="0" width="14" height="14">
<path fill-rule="evenodd" clip-rule="evenodd" d="M20.6846 0.214844H33.8858V13.1023H20.6846V0.214844Z" fill="white"/>
</mask>
<g mask="url(#mask1_14_2685)">
<path fill-rule="evenodd" clip-rule="evenodd" d="M33.8858 6.65859C33.8858 10.2174 30.9306 13.1023 27.2851 13.1023C23.6396 13.1023 20.6846 10.2174 20.6846 6.65859C20.6846 3.0998 23.6396 0.214844 27.2851 0.214844C30.9306 0.214844 33.8858 3.0998 33.8858 6.65859" fill="#7966FF"/>
</g>
<mask id="mask2_14_2685" style="mask-type:alpha" maskUnits="userSpaceOnUse" x="0" y="20" width="14" height="14">
<path fill-rule="evenodd" clip-rule="evenodd" d="M0 20.4297H13.2013V33.3172H0V20.4297Z" fill="white"/>
</mask>
<g mask="url(#mask2_14_2685)">
<path fill-rule="evenodd" clip-rule="evenodd" d="M13.2013 26.8734C13.2013 30.4322 10.246 33.3174 6.60053 33.3174C2.95503 33.3174 0 30.4322 0 26.8734C0 23.3146 2.95503 20.4297 6.60053 20.4297C10.246 20.4297 13.2013 23.3146 13.2013 26.8734" fill="#1AF4FF"/>
</g>
<mask id="mask3_14_2685" style="mask-type:alpha" maskUnits="userSpaceOnUse" x="20" y="20" width="14" height="14">
<path fill-rule="evenodd" clip-rule="evenodd" d="M20.6846 20.4297H33.8858V33.3172H20.6846V20.4297Z" fill="white"/>
</mask>
<g mask="url(#mask3_14_2685)">
<path fill-rule="evenodd" clip-rule="evenodd" d="M27.2851 33.3174C23.6396 33.3174 20.6846 30.4322 20.6846 26.8734C20.6846 23.3146 23.6396 20.4297 27.2851 20.4297C30.9306 20.4297 33.8858 23.3146 33.8858 26.8734C33.8858 30.4322 30.9306 33.3174 27.2851 33.3174Z" fill="#FFD817"/>
</g>
<path fill-rule="evenodd" clip-rule="evenodd" d="M93.4752 27.4927C96.5152 27.4927 98.8177 24.963 98.8177 21.305C98.8177 17.6013 96.5152 15.1172 93.4752 15.1172C90.4359 15.1172 88.0869 17.6469 88.0869 21.305C88.0869 25.0084 90.3899 27.4927 93.4752 27.4927ZM80.5332 21.3063C80.5332 14.7577 85.2309 8.97656 93.4748 8.97656C101.673 8.97656 106.417 14.7577 106.417 21.3063C106.417 27.8097 101.719 33.5907 93.4748 33.5907C85.2309 33.5907 80.5332 27.8097 80.5332 21.3063Z" fill="white"/>
<path fill-rule="evenodd" clip-rule="evenodd" d="M109.96 0.167969H117.329V24.6921C117.329 26.4535 118.158 27.4022 119.724 27.4022C120.46 27.4022 121.382 27.1765 122.118 26.7699L123.132 32.1894C121.243 33.0023 118.618 33.5446 116.592 33.5446C112.401 33.5446 109.96 31.286 109.96 27.2213V0.167969Z" fill="white"/>
<mask id="mask4_14_2685" style="mask-type:alpha" maskUnits="userSpaceOnUse" x="125" y="0" width="14" height="34">
<path fill-rule="evenodd" clip-rule="evenodd" d="M125.386 0.167969H138.558V33.5446H125.386V0.167969Z" fill="white"/>
</mask>
<g mask="url(#mask4_14_2685)">
<path fill-rule="evenodd" clip-rule="evenodd" d="M125.386 0.167969H132.755V24.6921C132.755 26.4535 133.584 27.4022 135.15 27.4022C135.886 27.4022 136.808 27.1765 137.544 26.7699L138.558 32.1894C136.669 33.0023 134.044 33.5446 132.018 33.5446C127.826 33.5446 125.386 31.286 125.386 27.2213V0.167969Z" fill="white"/>
</g>
<path fill-rule="evenodd" clip-rule="evenodd" d="M59.9041 16.3356V7.57376H66.582C68.2862 7.57376 70.0821 9.28981 70.0821 11.9095C70.0821 14.4843 68.6083 16.3356 66.8122 16.3356H62.6916L70.9024 33.1368H79.616L72.4311 21.2134C75.701 19.4518 77.7736 15.8388 77.7736 11.9095C77.7736 6.58044 73.2601 1.07031 67.0886 1.07031H52.3506V33.1368H59.9041V22.7942H59.907V16.3356H59.9041Z" fill="white"/>
</svg>
