<svg width="24" height="22" viewBox="0 0 24 22" fill="none" xmlns="http://www.w3.org/2000/svg">
<path d="M21.8949 0.371094L13.1782 6.82079L14.7992 3.01977L21.8949 0.371094Z" fill="#E17726" stroke="#E17726" stroke-width="0.25" stroke-linecap="round" stroke-linejoin="round"/>
<path d="M1.78906 0.371094L10.4281 6.88098L8.8848 3.01977L1.78906 0.371094Z" fill="#E27625" stroke="#E27625" stroke-width="0.25" stroke-linecap="round" stroke-linejoin="round"/>
<path d="M18.7567 15.3262L16.4375 18.8692L21.4036 20.2366L22.8263 15.4036L18.7567 15.3262Z" fill="#E27625" stroke="#E27625" stroke-width="0.25" stroke-linecap="round" stroke-linejoin="round"/>
<path d="M0.867188 15.4036L2.28115 20.2366L7.23869 18.8692L4.92804 15.3262L0.867188 15.4036Z" fill="#E27625" stroke="#E27625" stroke-width="0.25" stroke-linecap="round" stroke-linejoin="round"/>
<path d="M6.97126 9.3395L5.5918 11.4206L10.5062 11.6442L10.3424 6.35547L6.97126 9.3395Z" fill="#E27625" stroke="#E27625" stroke-width="0.25" stroke-linecap="round" stroke-linejoin="round"/>
<path d="M16.7131 9.34112L13.2903 6.29688L13.1782 11.6458L18.0926 11.4222L16.7131 9.34112Z" fill="#E27625" stroke="#E27625" stroke-width="0.25" stroke-linecap="round" stroke-linejoin="round"/>
<path d="M7.23877 18.8687L10.2133 17.4326L7.65263 15.4375L7.23877 18.8687Z" fill="#E27625" stroke="#E27625" stroke-width="0.25" stroke-linecap="round" stroke-linejoin="round"/>
<path d="M13.4717 17.4326L16.4375 18.8687L16.0323 15.4375L13.4717 17.4326Z" fill="#E27625" stroke="#E27625" stroke-width="0.25" stroke-linecap="round" stroke-linejoin="round"/>
<path d="M16.4375 18.8697L13.4717 17.4336L13.7131 19.3599L13.6872 20.1769L16.4375 18.8697Z" fill="#D5BFB2" stroke="#D5BFB2" stroke-width="0.25" stroke-linecap="round" stroke-linejoin="round"/>
<path d="M7.23877 18.8697L9.99776 20.1769L9.9805 19.3599L10.2133 17.4336L7.23877 18.8697Z" fill="#D5BFB2" stroke="#D5BFB2" stroke-width="0.25" stroke-linecap="round" stroke-linejoin="round"/>
<path d="M10.0484 14.1647L7.58252 13.4424L9.32411 12.6426L10.0484 14.1647Z" fill="#233447" stroke="#233447" stroke-width="0.25" stroke-linecap="round" stroke-linejoin="round"/>
<path d="M13.6367 14.1647L14.361 12.6426L16.1112 13.4424L13.6367 14.1647Z" fill="#233447" stroke="#233447" stroke-width="0.25" stroke-linecap="round" stroke-linejoin="round"/>
<path d="M7.23835 18.8692L7.66946 15.3262L4.92773 15.4036L7.23835 18.8692Z" fill="#CC6228" stroke="#CC6228" stroke-width="0.25" stroke-linecap="round" stroke-linejoin="round"/>
<path d="M16.0156 15.3262L16.4381 18.8692L18.7574 15.4036L16.0156 15.3262Z" fill="#CC6228" stroke="#CC6228" stroke-width="0.25" stroke-linecap="round" stroke-linejoin="round"/>
<path d="M18.0926 11.4219L13.1782 11.6455L13.6352 14.1652L14.3594 12.643L16.1096 13.4428L18.0926 11.4219Z" fill="#CC6228" stroke="#CC6228" stroke-width="0.25" stroke-linecap="round" stroke-linejoin="round"/>
<path d="M7.58342 13.4428L9.32501 12.643L10.0493 14.1652L10.5062 11.6455L5.5918 11.4219L7.58342 13.4428Z" fill="#CC6228" stroke="#CC6228" stroke-width="0.25" stroke-linecap="round" stroke-linejoin="round"/>
<path d="M5.5918 11.4219L7.65242 15.4379L7.58339 13.4428L5.5918 11.4219Z" fill="#E27525" stroke="#E27525" stroke-width="0.25" stroke-linecap="round" stroke-linejoin="round"/>
<path d="M16.1108 13.4428L16.0332 15.4379L18.0938 11.4219L16.1108 13.4428Z" fill="#E27525" stroke="#E27525" stroke-width="0.25" stroke-linecap="round" stroke-linejoin="round"/>
<path d="M10.5068 11.6445L10.0498 14.1643L10.6275 17.1397L10.7568 13.2183L10.5068 11.6445Z" fill="#E27525" stroke="#E27525" stroke-width="0.25" stroke-linecap="round" stroke-linejoin="round"/>
<path d="M13.1794 11.6445L12.938 13.2097L13.0587 17.1397L13.6364 14.1643L13.1794 11.6445Z" fill="#E27525" stroke="#E27525" stroke-width="0.25" stroke-linecap="round" stroke-linejoin="round"/>
<path d="M13.6362 14.1658L13.0586 17.1412L13.4725 17.4336L16.0331 15.4385L16.1107 13.4434L13.6362 14.1658Z" fill="#F5841F" stroke="#F5841F" stroke-width="0.25" stroke-linecap="round" stroke-linejoin="round"/>
<path d="M7.58252 13.4434L7.65154 15.4385L10.2122 17.4336L10.626 17.1412L10.0484 14.1658L7.58252 13.4434Z" fill="#F5841F" stroke="#F5841F" stroke-width="0.25" stroke-linecap="round" stroke-linejoin="round"/>
<path d="M13.6879 20.1763L13.7137 19.3593L13.4896 19.1701H10.1961L9.9805 19.3593L9.99776 20.1763L7.23877 18.8691L8.2044 19.6603L10.1615 21.0105H13.5154L15.4812 19.6603L16.4382 18.8691L13.6879 20.1763Z" fill="#C0AC9D" stroke="#C0AC9D" stroke-width="0.25" stroke-linecap="round" stroke-linejoin="round"/>
<path d="M13.4708 17.433L13.0569 17.1406H10.6256L10.2118 17.433L9.979 19.3593L10.1946 19.1701H13.4881L13.7123 19.3593L13.4708 17.433Z" fill="#161616" stroke="#161616" stroke-width="0.25" stroke-linecap="round" stroke-linejoin="round"/>
<path d="M22.2658 7.24215L22.9987 3.68194L21.8951 0.371094L13.4717 6.60582L16.7134 9.34045L21.2916 10.6734L22.3003 9.49529L21.8607 9.17706L22.559 8.54074L22.0245 8.12794L22.7228 7.59475L22.2658 7.24215Z" fill="#763E1A" stroke="#763E1A" stroke-width="0.25" stroke-linecap="round" stroke-linejoin="round"/>
<path d="M0.686035 3.68194L1.42751 7.24215L0.953313 7.59475L1.66029 8.12794L1.12575 8.54074L1.82411 9.17706L1.3844 9.49529L2.39315 10.6734L6.97134 9.34045L10.2131 6.60582L1.78962 0.371094L0.686035 3.68194Z" fill="#763E1A" stroke="#763E1A" stroke-width="0.25" stroke-linecap="round" stroke-linejoin="round"/>
<path d="M21.2925 10.6727L16.7143 9.33984L18.0938 11.421L16.0332 15.4369L18.7577 15.4026H22.8271L21.2925 10.6727Z" fill="#F5841F" stroke="#F5841F" stroke-width="0.25" stroke-linecap="round" stroke-linejoin="round"/>
<path d="M6.97137 9.33984L2.39324 10.6727L0.867188 15.4026H4.92804L7.65249 15.4369L5.59192 11.421L6.97137 9.33984Z" fill="#F5841F" stroke="#F5841F" stroke-width="0.25" stroke-linecap="round" stroke-linejoin="round"/>
<path d="M13.1794 11.6449L13.4725 6.60553L14.8003 3.01953H8.88574L10.2135 6.60553L10.5066 11.6449L10.6187 13.2272L10.6273 17.1401H13.0587L13.0673 13.2272L13.1794 11.6449Z" fill="#F5841F" stroke="#F5841F" stroke-width="0.25" stroke-linecap="round" stroke-linejoin="round"/>
</svg>
