<svg width="24" height="24" viewBox="0 0 24 24" fill="none" xmlns="http://www.w3.org/2000/svg">
<path d="M5.01318 13.6164L5.53637 13.3922L11.9427 10.6055L18.8722 13.6164L16.267 18.9978L9.90335 19.8946L5.11996 14.7269L5.01318 13.6164Z" fill="#133444"/>
<path d="M17.4301 10.3062C16.2877 8.92879 14.6647 8.0319 12.8923 7.79701C12.8496 7.79701 12.8176 7.78633 12.7749 7.78633C12.2197 7.72227 11.6645 7.72227 11.1092 7.78633C11.0665 7.78633 11.0345 7.79701 10.9918 7.79701C9.21938 8.0319 7.59644 8.92879 6.45398 10.3062L6.1657 10.7866L5.68523 11.5874L5.33288 12.1747C5.33288 12.196 5.3222 12.2067 5.31152 12.2174V12.228L6.08028 12.6872L10.9918 15.5914L11.9421 16.1466V9.2064L10.9918 9.63349V8.5978L11.9421 8.17071L12.8923 8.5978L17.7184 10.7866L17.4301 10.3062Z" fill="#C42370"/>
<path d="M19.086 15.3469C19.0753 17.6211 18.0503 19.7673 16.2885 21.2087C15.6159 21.7532 14.8578 22.1803 14.0357 22.4579C13.363 22.6821 12.6583 22.7996 11.9536 22.7996C8.00303 22.7996 4.81055 19.2868 4.81055 15.3469C4.81055 14.7596 4.88529 14.1831 5.02409 13.6172L11.9536 17.7172L18.8831 13.6172C19.0112 14.1831 19.086 14.7596 19.086 15.3469Z" fill="#1C4D6B"/>
<path d="M11.1096 7.77708L11.9425 8.16146L10.9922 8.58855V7.73438L11.1096 7.77708Z" fill="black"/>
<path d="M10.9922 9.63503L11.9425 9.19727V16.1374L10.9922 15.5822V9.63503Z" fill="black"/>
<path d="M11.9424 9.19727V16.1374L18.5836 12.2189L11.9424 9.19727Z" fill="#1D4259"/>
<path d="M11.9424 1.19922V9.19645L18.5836 12.2181L11.9424 1.19922Z" fill="#4B6B9A"/>
<path d="M11.9421 9.19662V16.1368L10.9918 15.5816L5.31152 12.2183C5.31152 12.1969 5.3222 12.1862 5.33288 12.1756L6.1657 10.7982L10.9918 8.60938V9.65574L11.9421 9.19662Z" fill="#343535"/>
<path d="M11.9435 9.19727V16.1374L10.9932 15.5822L5.31292 12.2189H5.30225L5.31292 12.2082L10.9932 9.63503L11.9435 9.19727Z" fill="#3E5578"/>
<path d="M11.9435 1.19922V9.19645L5.30225 12.2181L11.9435 1.19922Z" fill="#6DB2D8"/>
<path d="M9.25195 22.2324C9.34805 22.2751 9.45482 22.3178 9.55091 22.3605C9.45482 22.3178 9.35873 22.2751 9.25195 22.2324Z" fill="#335F8A"/>
<path d="M9.55127 22.3516C9.64737 22.3943 9.75414 22.4263 9.86091 22.4583C9.75414 22.4263 9.65804 22.3943 9.55127 22.3516Z" fill="#335F8A"/>
<path d="M10.1274 22.543C10.2129 22.5643 10.2876 22.5857 10.3623 22.607L10.1274 22.543Z" fill="#335F8A"/>
<path d="M5.01335 13.6172L11.9429 17.7172C11.8468 18.3365 11.6866 18.9451 11.441 19.5324C10.8858 20.8777 9.76471 22.2871 7.59723 21.2087C5.83549 19.7673 4.81048 17.6105 4.7998 15.3362C4.7998 14.7596 4.87455 14.1831 5.01335 13.6172Z" fill="#6DB2D8"/>
<path d="M16.2671 21.2198C16.2243 21.2519 16.2671 21.2198 16.1283 21.3373L16.0642 21.38L15.9681 21.4441L15.8506 21.5295C15.9681 21.4441 15.7545 21.5935 15.7118 21.6256C15.6691 21.6469 15.6371 21.6683 15.5944 21.7003L15.5197 21.7537C15.4983 21.7644 15.4663 21.7857 15.4449 21.8071C15.4449 21.8071 15.4129 21.8391 15.4022 21.8391C15.4449 21.8071 15.3488 21.8605 15.3061 21.8925C15.2527 21.9139 15.21 21.9352 15.1673 21.9673L15.0178 22.042L14.9538 22.074C14.9111 22.0954 14.9324 22.074 14.8897 22.1061C14.847 22.1381 14.7936 22.1488 14.7402 22.1808C14.6868 22.2128 14.7402 22.1808 14.5587 22.2662C14.7402 22.1808 14.5587 22.2662 14.4626 22.3089C14.5587 22.2662 14.2918 22.373 14.1743 22.4157C14.1316 22.4264 13.8967 22.5011 13.854 22.5118C13.8113 22.5225 13.7579 22.5438 13.7152 22.5545C13.6298 22.5759 13.555 22.5972 13.4803 22.6186C13.4483 22.6292 13.4162 22.6292 13.3949 22.6399L13.3415 22.6506L13.2134 22.6826C13.1707 22.6933 13.1386 22.6933 13.0959 22.704C13.0532 22.7147 13.0212 22.7147 12.9892 22.7253C12.9571 22.736 12.9037 22.736 12.8717 22.7467C12.8504 22.7467 12.829 22.7467 12.8183 22.7574L12.7329 22.768H12.6902C12.6582 22.768 12.6261 22.7787 12.5941 22.7787C12.5621 22.7787 12.5087 22.7894 12.466 22.7894H11.3769C11.3342 22.7894 11.2915 22.7787 11.2488 22.7787C11.2167 22.7787 11.1847 22.7787 11.1527 22.768H11.11C11.0779 22.768 11.0459 22.7574 11.0245 22.7574C11.0032 22.7574 10.9818 22.7574 10.9712 22.7467C10.9285 22.7467 10.8964 22.736 10.8537 22.7253C10.8217 22.7253 10.779 22.7147 10.7469 22.704C10.7149 22.6933 10.6722 22.6933 10.6295 22.6826L10.5014 22.6506L10.448 22.6399C10.4159 22.6399 10.3839 22.6292 10.3626 22.6186C10.2771 22.5972 10.2024 22.5759 10.1277 22.5545L9.98886 22.5118C9.94615 22.5011 9.90344 22.4904 9.86073 22.4691C9.75396 22.437 9.65787 22.3943 9.5511 22.3623C9.44432 22.3303 9.34823 22.2769 9.25213 22.2342C9.20943 22.2128 9.15604 22.1915 9.10265 22.1701C9.04927 22.1488 8.99588 22.1274 8.95317 22.0954C8.89979 22.074 8.85708 22.0527 8.81437 22.0206C8.77166 21.9993 8.71827 21.9673 8.67557 21.9459C8.63286 21.9245 8.60082 21.9032 8.56879 21.8818C8.46202 21.8178 8.39796 21.7751 8.46202 21.8178L8.39796 21.7751L8.28051 21.7003L8.2378 21.679L8.13103 21.6042C8.08832 21.5722 8.04561 21.5508 8.0029 21.5188C7.96019 21.4868 7.90681 21.4547 7.8641 21.4227C7.82139 21.3907 7.77868 21.348 7.74665 21.3266L7.70394 21.2946C7.66123 21.2732 7.6292 21.2412 7.59717 21.2092C9.76464 22.2876 10.8751 20.8568 11.4303 19.5222C11.6652 18.9349 11.836 18.3263 11.9321 17.707C12.0282 18.337 12.1884 18.9563 12.4339 19.5435C13.0105 20.8675 14.0996 22.2876 16.2671 21.2198Z" fill="#529BBA"/>
<path d="M13.5234 22.607C13.6089 22.5857 13.6836 22.5643 13.7583 22.543L13.5234 22.607Z" fill="#335F8A"/>
<path d="M14.0254 22.4583C14.1322 22.4263 14.2283 22.3943 14.335 22.3516C14.2283 22.3943 14.1322 22.4263 14.0254 22.4583Z" fill="#335F8A"/>
<path d="M14.313 22.3615C14.4091 22.3188 14.5372 22.276 14.6333 22.2227C14.5265 22.276 14.4091 22.3188 14.313 22.3615Z" fill="#335F8A"/>
<path d="M19.0854 15.3469C19.0748 17.6211 18.0497 19.7673 16.288 21.2087C14.1205 22.2871 12.9994 20.867 12.4442 19.5324C12.2093 18.9451 12.0385 18.3365 11.9424 17.7172L18.8719 13.6172C19.0107 14.1831 19.0854 14.7596 19.0854 15.3469Z" fill="#4B6B9A"/>
</svg>
