<svg width="32" height="32" viewBox="0 0 32 32" fill="none" xmlns="http://www.w3.org/2000/svg">
<path fill-rule="evenodd" clip-rule="evenodd" d="M30.7571 6.83544C29.9192 8.07314 28.9001 9.1308 27.6999 10.0084V10.7848C27.6999 12.8101 27.3262 14.8354 26.5789 16.8608C25.7862 18.9311 24.6766 20.7764 23.2499 22.3966C21.7099 24.1294 19.8983 25.4796 17.8148 26.4473C15.5275 27.4824 13.0478 28 10.3755 28C8.67705 28 7.02389 27.7637 5.41601 27.2911C3.85341 26.8411 2.38142 26.1772 1 25.2996C1.47557 25.3446 1.96246 25.3671 2.46068 25.3671C3.86475 25.3671 5.21218 25.1421 6.50302 24.692C7.79386 24.2419 8.97145 23.6118 10.0358 22.8017C8.72234 22.7567 7.54475 22.346 6.50302 21.5696C5.46129 20.7932 4.74795 19.7975 4.36296 18.5823C4.7253 18.6498 5.09896 18.6835 5.48394 18.6835C6.02746 18.6835 6.55964 18.616 7.0805 18.481C6.17465 18.301 5.34807 17.9241 4.60074 17.3502C3.85342 16.7764 3.27028 16.0675 2.85133 15.2236C2.43237 14.3797 2.21157 13.4852 2.18892 12.5401V12.4388C3.04948 12.9339 3.97797 13.1927 4.97441 13.2152C4.13649 12.6526 3.4741 11.9269 2.9872 11.038C2.50031 10.1491 2.25686 9.18707 2.25686 8.1519C2.25686 7.07172 2.52861 6.05908 3.07213 5.11392C4.61207 6.98173 6.45772 8.46694 8.60912 9.56962C10.8058 10.6948 13.1497 11.3249 15.6408 11.4599C15.5502 11.0098 15.5049 10.5485 15.5049 10.0759C15.5049 8.97327 15.7766 7.96062 16.3201 7.03797C16.8637 6.11533 17.6053 5.37834 18.5451 4.827C19.485 4.27567 20.4984 4 21.5854 4C22.4459 4 23.2612 4.16877 24.0312 4.50633C24.8011 4.84388 25.4692 5.31645 26.0354 5.92405C27.4168 5.65401 28.7076 5.15893 29.9079 4.43882C29.6814 5.15893 29.336 5.8059 28.8718 6.37975C28.4075 6.95359 27.8584 7.43178 27.2243 7.81435C28.4698 7.65682 29.6474 7.33052 30.7571 6.83544Z" fill="white"/>
</svg>
