<svg width="10" height="16" viewBox="0 0 10 16" fill="none" xmlns="http://www.w3.org/2000/svg">
<path d="M8.75 11.5V11.9167C8.75 12.375 8.375 12.75 7.91667 12.75H2.08333C1.62083 12.75 1.25 12.375 1.25 11.9167V6.08333C1.25 5.625 1.62083 5.25 2.08333 5.25H7.91667C8.375 5.25 8.75 5.625 8.75 6.08333V6.5H5C4.5375 6.5 4.16667 6.875 4.16667 7.33333V10.6667C4.16667 11.125 4.5375 11.5 5 11.5H8.75ZM5 10.6667H9.16667V7.33333H5V10.6667ZM6.66667 9.625C6.32083 9.625 6.04167 9.34583 6.04167 9C6.04167 8.65417 6.32083 8.375 6.66667 8.375C7.0125 8.375 7.29167 8.65417 7.29167 9C7.29167 9.34583 7.0125 9.625 6.66667 9.625Z" fill="#004EFF"/>
</svg>
